<svg width="69" height="68" viewBox="0 0 69 68" fill="none" xmlns="http://www.w3.org/2000/svg">
<circle cx="34.5" cy="34" r="34" fill="#23A26D" fill-opacity="0.12"/>
<path d="M33.8926 17.8095C24.9717 17.8095 17.7021 25.079 17.7021 34C17.7021 42.9209 24.9717 50.1905 33.8926 50.1905C42.8136 50.1905 50.0831 42.9209 50.0831 34C50.0831 25.079 42.8136 17.8095 33.8926 17.8095ZM41.6317 30.2762L32.4517 39.4562C32.225 39.6828 31.9174 39.8124 31.5936 39.8124C31.2698 39.8124 30.9621 39.6828 30.7355 39.4562L26.1536 34.8743C25.6841 34.4047 25.6841 33.6276 26.1536 33.1581C26.6231 32.6886 27.4002 32.6886 27.8698 33.1581L31.5936 36.8819L39.9155 28.56C40.385 28.0905 41.1621 28.0905 41.6317 28.56C42.1012 29.0295 42.1012 29.7905 41.6317 30.2762Z" fill="#23A26D"/>
</svg>
