<svg width="409" height="242" viewBox="0 0 409 242" fill="none" xmlns="http://www.w3.org/2000/svg">
<g filter="url(#filter0_d_3244_2036)">
<path d="M345 24C356.201 24 361.802 23.9998 366.08 26.1797C369.843 28.0971 372.903 31.1568 374.82 34.9199C377 39.1982 377 44.7989 377 56V178C371.477 178 367 182.477 367 188C367 193.523 371.477 198 377 198V202H32V198C37.5228 198 42 193.523 42 188C42 182.477 37.5228 178 32 178V56C32 44.7989 31.9998 39.1982 34.1797 34.9199C36.0971 31.1568 39.1568 28.0971 42.9199 26.1797C47.1982 23.9998 52.799 24 64 24H345Z" fill="white"/>
</g>
<defs>
<filter id="filter0_d_3244_2036" x="0" y="0" width="409" height="242" filterUnits="userSpaceOnUse" color-interpolation-filters="sRGB">
<feFlood flood-opacity="0" result="BackgroundImageFix"/>
<feColorMatrix in="SourceAlpha" type="matrix" values="0 0 0 0 0 0 0 0 0 0 0 0 0 0 0 0 0 0 127 0" result="hardAlpha"/>
<feOffset dy="8"/>
<feGaussianBlur stdDeviation="16"/>
<feComposite in2="hardAlpha" operator="out"/>
<feColorMatrix type="matrix" values="0 0 0 0 0.4 0 0 0 0 0.4 0 0 0 0 0.4 0 0 0 0.16 0"/>
<feBlend mode="normal" in2="BackgroundImageFix" result="effect1_dropShadow_3244_2036"/>
<feBlend mode="normal" in="SourceGraphic" in2="effect1_dropShadow_3244_2036" result="shape"/>
</filter>
</defs>
</svg>
